<svg width="1024" height="1024" viewBox="0 0 1024 1024" fill="black" xmlns="http://www.w3.org/2000/svg">
<clipPath id="one">
<path fill-rule="evenodd" clip-rule="evenodd" d="M55 685.912V0H245L687 644H696V0H911.5V661.182C907.784 659.039 903.89 657.039 899.818 655.182C879.212 645.727 855.091 641 827.455 641C800.303 641 776.061 645.727 754.727 655.182C733.394 664.636 716.606 677.788 704.364 694.636C692.242 711.485 686.242 731.182 686.364 753.727C686.242 781.242 695.273 803.121 713.455 819.364C731.636 835.606 756.424 847.545 787.818 855.182L828.364 865.364C841.939 868.636 853.394 872.273 862.727 876.273C872.182 880.273 879.333 885.121 884.182 890.818C889.151 896.515 891.636 903.545 891.636 911.909C891.636 920.879 888.909 928.818 883.455 935.727C878 942.636 870.303 948.03 860.364 951.909C850.545 955.788 838.97 957.727 825.636 957.727C812.061 957.727 799.879 955.667 789.091 951.545C778.424 947.303 769.879 941.061 763.454 932.818C757.151 924.455 753.576 914.03 752.727 901.545H676.545C677.151 928.333 683.636 950.818 696 969C708.485 987.061 725.818 1000.7 748 1009.91C770.303 1019.12 796.485 1023.73 826.545 1023.73C856.848 1023.73 882.727 1019.18 904.182 1010.09C906.69 1009.02 909.129 1007.9 911.5 1006.73V1024H724.5L524.182 734.202V711H638.182V646.091H463.276L279 379.5H271.5V668.364C260.004 660.714 247.323 654.623 233.455 650.091C215.03 644.03 195.03 641 173.455 641C140.727 641 111.273 648.515 85.0909 663.545C74.0993 669.805 64.0689 677.26 55 685.912ZM55 979.063C42.289 966.952 31.4709 952.507 22.5455 935.727C7.51515 907.242 0 872.758 0 832.273C0 791.667 7.63636 757.121 22.9091 728.636C31.77 712.11 42.467 697.869 55 685.912V979.063ZM271.5 995.318V1024H55V979.063C63.8668 987.511 73.6547 994.824 84.3636 1001C110.545 1016.03 140.242 1023.55 173.455 1023.55C197.333 1023.55 218.727 1019.97 237.636 1012.82C250.061 1008.07 261.349 1002.24 271.5 995.318ZM271.5 891.255L335.091 891.545C333.03 908.636 327.879 925.121 319.636 941C311.515 956.758 300.545 970.879 286.727 983.364C281.973 987.655 276.897 991.64 271.5 995.318V891.255ZM271.5 776.455V891.255L255.455 891.182C253.636 901.121 250.364 909.97 245.636 917.727C241.03 925.485 235.212 932.091 228.182 937.545C221.152 942.879 213.091 946.939 204 949.727C195.03 952.515 185.273 953.909 174.727 953.909C155.939 953.909 139.394 949.303 125.091 940.091C110.788 930.879 99.6364 917.242 91.6364 899.182C83.7576 881.121 79.8182 858.818 79.8182 832.273C79.8182 806.455 83.7576 784.515 91.6364 766.455C99.5152 748.273 110.606 734.455 124.909 725C139.212 715.424 156 710.636 175.273 710.636C185.939 710.636 195.818 712.152 204.909 715.182C214.121 718.212 222.242 722.576 229.273 728.273C236.303 733.97 242.061 740.879 246.545 749C251.03 757 254 766.151 255.455 776.455H271.5ZM271.5 776.455H335.091C332.545 754.879 326.727 735.727 317.636 719C308.667 702.273 297.03 688.151 282.727 676.636C279.12 673.701 275.377 670.944 271.5 668.364V776.455ZM463.276 646.091H332.364V711H446.364V1018.45H524.182V734.202L463.276 646.091ZM911.5 820.674C922.028 826.037 931.346 832.327 939.454 839.545C949.394 848.394 957.091 858.818 962.545 870.818C968.121 882.818 970.97 896.576 971.091 912.091C970.97 934.879 965.151 954.636 953.636 971.364C943.567 986.039 929.522 997.827 911.5 1006.73V820.674ZM911.5 820.674C909.122 819.462 906.683 818.298 904.182 817.182C890.606 811.121 875.697 806.273 859.455 802.636L826 794.636C817.879 792.818 810.242 790.636 803.091 788.091C795.939 785.424 789.636 782.333 784.182 778.818C778.727 775.182 774.424 770.879 771.273 765.909C768.242 760.939 766.848 755.121 767.091 748.455C767.091 740.455 769.394 733.303 774 727C778.727 720.697 785.515 715.788 794.364 712.273C803.212 708.636 814.061 706.818 826.909 706.818C845.818 706.818 860.788 710.879 871.818 719C882.848 727.121 889.091 738.515 890.545 753.182H911.5V820.674ZM911.5 753.182V661.182C926.701 669.946 938.929 681.098 948.182 694.636C959.697 711.485 965.636 731 966 753.182H911.5Z" fill="#D9D9D9"/>
</clipPath>
</svg>

